<?xml version="1.0" standalone="no"?>
<!DOCTYPE svg PUBLIC "-//W3C//DTD SVG 20010904//EN"
 "http://www.w3.org/TR/2001/REC-SVG-20010904/DTD/svg10.dtd">
<svg version="1.0" xmlns="http://www.w3.org/2000/svg"
 width="16.000000pt" height="16.000000pt" viewBox="0 0 16.000000 16.000000"
 preserveAspectRatio="xMidYMid meet">

<g transform="translate(0.000000,16.000000) scale(0.100000,-0.100000)"
fill="#000000" stroke="none">
<path d="M50 136 c-6 -8 -10 -23 -8 -34 2 -10 -2 -25 -8 -33 -6 -8 -15 -24
-18 -36 -7 -22 -5 -23 64 -23 69 0 71 1 64 23 -3 12 -12 28 -18 36 -6 8 -10
23 -8 33 7 40 -42 64 -68 34z m47 -7 c15 -15 5 -39 -17 -39 -22 0 -32 24 -17
39 6 6 14 11 17 11 3 0 11 -5 17 -11z m21 -71 c26 -26 13 -38 -38 -38 -34 0
-50 4 -50 13 0 33 62 51 88 25z"/>
</g>
</svg>
